<svg xmlns="http://www.w3.org/2000/svg" xmlns:xlink="http://www.w3.org/1999/xlink" width="127.795" height="127.795" viewBox="0 0 8192 8192">
  <defs>
    <style>
      .cls-1 {
        filter: url(#filter);
      }

      .cls-2 {
        fill: #fff;
        fill-rule: evenodd;
      }
    </style>
    <filter id="filter" filterUnits="userSpaceOnUse">
      <feOffset result="offset" dx="39.126" dy="8.316" in="SourceAlpha"/>
      <feGaussianBlur result="blur" stdDeviation="5.385"/>
      <feFlood result="flood" flood-opacity="0.35"/>
      <feComposite result="composite" operator="in" in2="blur"/>
      <feGaussianBlur result="blur-2" stdDeviation="15.333" in="SourceAlpha"/>
      <feComposite result="composite-2"/>
      <feComposite result="composite-3"/>
      <feComposite result="composite-4"/>
      <feFlood result="flood-2" flood-color="#fff" flood-opacity="0.35"/>
      <feComposite result="composite-5" operator="in" in2="composite-4"/>
      <feBlend result="blend" mode="screen" in2="composite"/>
      <feBlend result="blend-2" in="SourceGraphic"/>
    </filter>
  </defs>
  <g id="Project_SelfIcon" data-name="Project SelfIcon" class="cls-1">
    <path id="Main" class="cls-2" d="M2015.82,1055.4c179.49,510.73-12.63,963.59-49.92,1052.26s-379.55,216.65-379.55,216.65,388.22,160.74,526.33,276.71c129.87,109.05,294.51,353.97,262.76,400.82s-41.24,43.3-304.14,74.82-501.28-58-501.28-58,74.43,480.81-103.54,629.12-743.334,303.19-743.334,303.19,684.964,85.78,862.194,315.25,80.72,597.37,80.72,597.37,639.5-99.1,705.33-10.97c164.91,220.78,35.19,792.67,35.19,792.67s343.78-358.41,546.23-409.81c172.59-43.82,510.71,241.31,510.71,241.31s-168.77-252.99-17.82-574.46c59.93-127.62,298.03-425.78,403.52-308.38,68.61,76.36,113.91,164.28,113.91,164.28l451.23,803.61,100.23-56.27S2089.1,1185.9,2015.82,1055.4Zm2062.6,2270.46-542.6,243.51-130.76,580.18-243.5-542.6-580.18-130.76,542.6-243.5,130.76-580.18,243.5,542.59ZM3124.65,2018l-308.82,138.59L2741.4,2486.8l-138.58-308.82-330.21-74.42,308.82-138.59,74.42-330.21,138.59,308.82ZM4475.4,4420.66l-308.82,138.59-74.43,330.21-138.58-308.82-330.21-74.42,308.82-138.59,74.42-330.21,138.59,308.82Zm421.36-662.78-308.82,138.59-74.42,330.21-138.59-308.82-330.21-74.42,308.82-138.59,74.42-330.21,138.59,308.82ZM4045.07,2182.36l-308.82,138.59-74.42,330.21-138.59-308.82-330.21-74.42,308.82-138.59,74.42-330.21,138.59,308.82Zm645.02,607.11-308.82,138.59-74.42,330.21-138.59-308.82-330.21-74.42,308.82-138.59,74.42-330.21,138.59,308.82Zm589.07,1528.18-173.88,78.03-41.91,185.93-78.03-173.88-185.93-41.91,173.89-78.03,41.9-185.93,78.03,173.88ZM5224.2,3274.81l-173.88,78.03-41.91,185.93-78.03-173.88-185.93-41.91,173.88-78.03,41.91-185.93,78.03,173.88ZM3306.83,1559.37l-173.88,78.04-41.91,185.93-78.03-173.89-185.93-41.9,173.88-78.04,41.91-185.93,78.03,173.89Zm1010.08,262.98-173.89,78.03-41.91,185.93-78.03-173.88-185.93-41.91,173.89-78.03,41.9-185.93,78.04,173.88Zm-964.42-389.11-46.47-90.36L5258.3,338.854l46.47,90.355Zm1038.03,228.08-46.46-90.36L6296.34,566.933l46.46,90.355Zm956.4,1476.81-46.47-90.35L7252.73,2043.75l46.47,90.35ZM5280,4191.52l-46.47-90.36L7185.81,3097.13l46.47,90.36ZM4573.98,2602.26l-46.47-90.36L7422.37,1023.12l46.47,90.35Z"/>
    <path id="Hoshiri_Aki" data-name="Hoshiri Aki" class="cls-2" d="M2470.68,6602.51a43.91,43.91,0,0,1-5.88,21.15l-0.58,1.18-11.76,21.15-12.34,20.57c0,0.59-.58,1.17-0.58,1.76h-0.59l-11.75,20.57-11.76,21.15-0.58.59-12.34,21.16-11.76,21.15-1.17,1.18-11.75,21.15-12.34,21.15-0.59.59-12.34,21.16-11.76,20.56v0.59c-0.58,0-.58.59-1.17,1.18l-11.75,21.15-12.34,20.57-0.59,1.17c-7.64,12.34-21.16,21.16-37.02,21.16a43.2,43.2,0,0,1-37.02-20.57l-0.59-1.76a41.222,41.222,0,0,1-5.29-20.57c0-7.64,1.76-15.28,5.29-21.15l0.59-1.18v-0.59l12.34-20.56,12.34-21.16h0v-0.59a41.037,41.037,0,0,0,0-42.3,1.178,1.178,0,0,0-.59-1.18,42.971,42.971,0,0,0-37.02-21.15h-99.31c-15.87,0-29.38,8.81-37.02,21.15,0,0.59-.59.59-0.59,1.18l-12.34,21.15-11.75,20.57-1.18,1.76-11.75,20.57-12.34,20.56v0.59a2.06,2.06,0,0,0-.59,1.18l-12.34,21.15-11.75,20.57-1.18,1.76c-7.05,12.34-21.15,20.57-36.43,20.57a43.2,43.2,0,0,1-37.02-20.57l-1.18-1.76c-2.93-5.88-5.28-13.52-5.28-20.57a48.975,48.975,0,0,1,5.28-21.15l1.18-1.18v-0.59l11.75-20.56,12.34-20.57c0-.59.59-1.18,0.59-1.76l12.34-20.57,11.75-21.15,1.18-1.18,11.75-21.15,11.75-20.57h0.59c0-.59,0-1.18.59-1.18l24.09-42.31,0.59-1.17,12.34-20.57,11.75-21.15h0l1.18-1.18,11.75-21.15,12.34-20.57,0.59-1.76,11.75-20.57,12.34-21.16,0.59-1.17,12.34-21.16,11.75-20.56,1.18-1.77a43.188,43.188,0,0,1,37.02-20.56c15.28,0,29.38,8.81,37.02,21.15l0.59,1.18a39.7,39.7,0,0,1,5.28,20.56c0,7.64-1.76,15.28-5.28,21.16l-0.59,1.17-12.34,21.16-11.75,20.57h-0.59a2.157,2.157,0,0,1-.59,1.76,39.651,39.651,0,0,0-5.29,20.57,43.387,43.387,0,0,0,5.29,21.15l1.18,1.18a42.721,42.721,0,0,0,36.43,21.15h99.9c15.86,0,29.38-8.81,37.02-21.15,0-.59.59-0.59,0.59-1.18l12.34-21.15,11.75-20.57,0.59-1.76h0.58c7.05-12.34,21.16-20.57,36.44-20.57a43.419,43.419,0,0,1,37.6,21.15v0.59A43.948,43.948,0,0,1,2470.68,6602.51Zm129.88,215.66v0.58a17.244,17.244,0,0,0,13.51,7.06h59.35a15.551,15.551,0,0,0,13.52-7.64l15.28-26.45,7.05-12.34,7.64-12.92a17.462,17.462,0,0,0,0-15.28l-7.64-12.93-8.81-14.69-13.52-24.09a15.53,15.53,0,0,0-13.52-7.64,16.13,16.13,0,0,0-12.92,7.05v0.59l-29.97,51.12v0.59l-22.33,38.78-5.88,9.99-1.76,2.94a18.023,18.023,0,0,0-1.76,7.64A16.2,16.2,0,0,0,2600.56,6818.17Zm-82.86-7.64a36.831,36.831,0,0,1,3.53-15.87v-0.59l1.76-2.35,14.1-24.68,0.59-.58,15.28-26.45,7.05-12.34,5.88-9.99,1.17-2.94h0.59v-0.58l15.28-25.86,28.21-49.36,1.76-2.35a35.5,35.5,0,0,1,31.14-17.63h59.35a37.2,37.2,0,0,1,31.74,17.63v0.59l14.69,25.26v0.59h0.58l29.39,51.13v0.58h0.58l1.18,2.94,13.51,23.51a35.332,35.332,0,0,1,0,35.25v0.59l-13.51,22.92-1.18,2.94h-0.58v0.59l-29.39,51.12h-0.58v0.59l-14.69,25.85a37.2,37.2,0,0,1-31.74,17.63H2584.1a35.5,35.5,0,0,1-31.14-17.63l-1.76-2.35-13.52-23.5v-0.59l-0.59-.59-14.1-24.68-0.59-1.17A35.9,35.9,0,0,1,2517.7,6810.53Zm550.03,88.14H2948.44a35.5,35.5,0,0,1-31.14-17.63l-1.76-2.35-13.52-23.5v-0.59l-0.59-.59-14.1-24.68-0.59-1.17a35.9,35.9,0,0,1-4.7-17.63,36.831,36.831,0,0,1,3.53-15.87v-0.59l1.76-2.35a36.325,36.325,0,0,1,62.29,0l1.76,2.35,13.52,23.51v1.17a17.214,17.214,0,0,0,13.51,7.06h59.35a15.551,15.551,0,0,0,13.52-7.64,16.325,16.325,0,0,0,1.76-7.64,14,14,0,0,0-1.76-7.05v-0.59a15.551,15.551,0,0,0-13.52-7.64h-29.38a35.488,35.488,0,0,1-31.14-17.63h-0.59l-14.69-26.44h-0.59l-7.05-12.93-8.81-14.69v-0.59a36.686,36.686,0,0,1-3.53-15.87c0-6.46,1.17-12.34,4.11-17.62l1.18-1.18,14.1-25.27h0.59l13.51-24.09,1.77-2.35a35.488,35.488,0,0,1,31.14-17.63h119.29a35.516,35.516,0,0,1,31.15,17.63l0.58,0.59,14.69,25.26h0v1.18l14.7,25.27,0.58,0.59a35.4,35.4,0,0,1,0,35.25l-0.58,1.18a36.789,36.789,0,0,1-31.15,17.63,35.509,35.509,0,0,1-31.14-17.63l-1.77-2.35-13.51-24.09a16.276,16.276,0,0,0-13.52-7.64h-59.94a16.1,16.1,0,0,0-12.92,7.05v0.59a13.53,13.53,0,0,0,0,15.27v0.59a16.128,16.128,0,0,0,12.92,7.05h29.97a36.991,36.991,0,0,1,31.73,18.22l14.7,25.86h0.58v0.58l14.69,25.86a35.35,35.35,0,0,1,0,35.26v0.58l-14.69,25.86h-0.58v0.59l-14.7,25.85A37.168,37.168,0,0,1,3067.73,6898.67Zm424.28,0c-12.93,0-24.09-6.46-31.14-17.63l-1.18-2.35a32.554,32.554,0,0,1-4.11-16.45,37.638,37.638,0,0,1,4.7-17.63l0.59-1.17,14.69-25.27,15.27-26.45,7.06-12.34,22.91-39.37,14.7-25.85a14.036,14.036,0,0,0,1.76-7.06,14.64,14.64,0,0,0-15.28-15.27h-59.94a16.134,16.134,0,0,0-12.93,7.05v0.59l-29.97,51.12v0.59l-22.33,38.78-5.87,9.99-1.77,2.94v0.59l-15.27,25.85-14.11,24.68v0.59h-0.58v0.59l-13.52,23.5-1.76,2.35a35.516,35.516,0,0,1-31.15,17.63c-12.93,0-24.09-6.46-31.14-17.63l-1.18-2.35a32.554,32.554,0,0,1-4.11-16.45,37.638,37.638,0,0,1,4.7-17.63l0.59-1.17,14.69-24.69v-0.58l15.28-26.45,14.1-24.68,0.59-.58,15.28-26.45,7.05-12.34,5.87-9.99,1.18-2.94h0.59v-0.58l15.28-25.86,29.38-51.71,7.64-12.34,7.05-12.93,15.28-26.44,14.69-25.27h0v-0.59l15.28-25.85,14.69-25.27v-0.59l13.51-23.51,1.76-2.93a36.264,36.264,0,0,1,31.15-17.05,35.509,35.509,0,0,1,31.14,17.63l0.59,0.59a39.976,39.976,0,0,1,4.7,18.22,37.669,37.669,0,0,1-4.7,17.63l-14.69,25.85-0.59.59-29.38,51.12-0.59.59a16.325,16.325,0,0,0-1.76,7.64,15.7,15.7,0,0,0,1.76,7.05v0.59h0.59c2.94,4.7,7.64,7.64,12.93,7.64h29.97a35.488,35.488,0,0,1,31.14,17.63l0.59,0.59,14.69,25.26h0v1.18l14.69,25.27,0.59,0.59a35.4,35.4,0,0,1,0,35.25l-0.59.59-14.69,25.27v1.17h-0.59l-21.74,38.2-5.87,9.99-1.18,2.94h-0.59v0.59l-29.38,51.12h-0.59v0.59l-14.69,25.85A37.168,37.168,0,0,1,3492.01,6898.67Zm424.28-310.27a35.516,35.516,0,0,1-31.15-17.63l-0.58-1.17a37.638,37.638,0,0,1-4.7-17.63,35.9,35.9,0,0,1,4.7-17.63l0.58-1.17a35.516,35.516,0,0,1,31.15-17.63,37.168,37.168,0,0,1,31.73,17.63v0.58a40.008,40.008,0,0,1,4.7,18.22,37.638,37.638,0,0,1-4.7,17.63v0.59C3940.97,6581.35,3929.22,6588.4,3916.29,6588.4Zm-215.66,273.84a37.638,37.638,0,0,1,4.7-17.63l0.59-1.17,7.05-12.35,5.87-9.99,1.18-2.35,0.59-.58v-0.59l15.28-25.86,14.1-24.68v-0.58h0.59l14.69-26.45,7.64-12.34,7.05-12.93h0.59l14.69-26.44,14.69-25.27h0l15.28-26.44a36.928,36.928,0,0,1,31.14-17.63,37.766,37.766,0,0,1,31.73,17.63v1.17c3.53,5.29,4.7,11.17,4.7,17.63s-1.17,12.34-4.11,17.63h-0.59l-7.64,13.52-7.05,12.34v0.59h-0.59l-21.74,38.78-5.87,9.99-1.77,2.94-0.59.58-29.38,51.13v0.59l-29.38,51.12h-0.59v0.59l-15.27,25.85a36.325,36.325,0,0,1-62.29,0l-0.59-1.17A35.9,35.9,0,0,1,3700.63,6862.24Zm370.8,36.43a35.488,35.488,0,0,1-31.14-17.63l-1.77-2.35a39.41,39.41,0,0,1-3.52-16.45,37.638,37.638,0,0,1,4.7-17.63l0.59-1.17,14.1-24.69v-0.58h0.59l14.69-26.45,7.64-12.34,7.05-12.92h0.59l14.69-26.45,14.69-25.27h0l15.28-26.44,14.69-25.27,14.1-24.09,1.17-2.35c7.06-11.17,18.22-17.63,31.15-17.63a37.168,37.168,0,0,1,31.73,17.63v0.59l14.69,25.26v0.59h0.59a14.6,14.6,0,0,0,12.93,7.64h29.97a36.76,36.76,0,0,1,31.14,17.63l0.59,1.18a35.4,35.4,0,0,1,0,35.25l-0.59,1.18a36.76,36.76,0,0,1-31.14,17.63h-89.91c-5.29,0-9.99,2.94-12.93,7.64h-0.59l-21.74,38.78-5.88,9.99-1.76,2.94-0.59.59-29.38,51.12v0.59l-15.28,25.85A35.488,35.488,0,0,1,4071.43,6898.67ZM4615,6588.4a35.516,35.516,0,0,1-31.15-17.63l-0.59-1.17a37.756,37.756,0,0,1-4.7-17.63,36,36,0,0,1,4.7-17.63l0.59-1.17a35.516,35.516,0,0,1,31.15-17.63,37.18,37.18,0,0,1,31.73,17.63v0.58a40.008,40.008,0,0,1,4.7,18.22,37.638,37.638,0,0,1-4.7,17.63v0.59C4639.68,6581.35,4627.92,6588.4,4615,6588.4Zm-215.66,273.84a37.638,37.638,0,0,1,4.7-17.63l0.58-1.17,7.06-12.35,5.87-9.99,1.18-2.35,0.59-.58v-0.59l15.27-25.86,14.11-24.68v-0.58h0.58l14.7-26.45,7.63-12.34,7.06-12.93h0.58l14.69-26.44,14.7-25.27h0l15.27-26.44a36.957,36.957,0,0,1,31.15-17.63,37.766,37.766,0,0,1,31.73,17.63v1.17c3.53,5.29,4.7,11.17,4.7,17.63s-1.17,12.34-4.11,17.63h-0.59l-7.64,13.52-7.05,12.34v0.59h-0.59l-21.74,38.78-5.88,9.99-1.76,2.94-0.59.58-29.38,51.13v0.59l-29.38,51.12h-0.59v0.59l-15.28,25.85a36.325,36.325,0,0,1-62.29,0l-0.58-1.17A35.9,35.9,0,0,1,4399.34,6862.24Zm1140.02-238.58-0.59,1.18c-7.64,12.34-21.16,21.15-37.02,21.15h-99.9a42.721,42.721,0,0,1-36.43-21.15c-0.59,0-.59-0.59-1.18-1.18a43.5,43.5,0,0,1-5.29-21.15,39.747,39.747,0,0,1,5.29-20.57v-0.59a0.578,0.578,0,0,0,.59-0.59v-0.58h0.59c7.05-12.34,21.15-20.57,36.43-20.57h99.9a42.477,42.477,0,0,1,37.02,21.15l0.59,0.59A44.945,44.945,0,0,1,5539.36,6623.66ZM5109.8,6861.65c0,7.05,2.35,14.69,5.29,20.57l1.17,1.76a43.209,43.209,0,0,0,37.02,20.57c15.28,0,29.38-8.23,36.44-20.57l1.17-1.76,11.75-20.57,12.34-21.15a2.06,2.06,0,0,1,.59-1.18v-0.59l12.34-20.56,11.75-20.57,1.18-1.76,11.75-20.57,12.34-21.15a2.06,2.06,0,0,1,.59-1.18c7.64-12.34,21.15-21.15,37.02-21.15h99.31a42.959,42.959,0,0,1,37.02,21.15l0.59,1.18a41.037,41.037,0,0,1,0,42.3v0.59l-12.34,21.16-12.34,20.56v0.59l-0.59,1.18c-3.52,5.87-5.29,13.51-5.29,21.15a41.326,41.326,0,0,0,5.29,20.57l0.59,1.76a43.2,43.2,0,0,0,37.02,20.57c15.87,0,29.38-8.82,37.02-21.16l0.59-1.17,12.34-20.57,11.75-21.15c0.59-.59.59-1.18,1.18-1.18v-0.59l11.75-20.56,12.34-21.16,0.59-.59,12.34-21.15,11.75-21.15,1.17-1.18,11.76-21.15,12.34-21.16,0.59-.59,11.75-21.15,11.75-20.57h0.59c0-.59.59-1.17,0.59-1.76l12.34-20.57,11.75-21.15,0.59-1.18a41.055,41.055,0,0,0,0-42.31v-0.59l-24.68-42.31c0-.58-0.59-0.58-0.59-1.17l-0.59-.59-23.5-41.13-0.59-1.18c-7.64-12.34-21.74-21.15-37.02-21.15H5352.49a43.188,43.188,0,0,0-37.02,20.56l-1.18,1.77-11.75,20.56-12.34,21.16-0.59,1.17-12.34,21.16-11.75,20.57-0.59,1.76-12.34,20.57-11.75,21.15-1.18,1.18-11.75,21.15-12.34,20.57-0.59,1.17-24.09,42.31c-0.59,0-.59.59-0.59,1.18h-0.58l-11.76,20.57-11.75,21.15-1.18,1.18-11.75,21.15-12.34,20.57c0,0.58-.59,1.17-0.59,1.76l-12.34,20.57-11.75,20.56v0.59l-1.17,1.18A48.839,48.839,0,0,0,5109.8,6861.65Zm797.42,37.02a35.5,35.5,0,0,1-31.14-17.63l-1.76-2.35-13.52-24.09-14.69-25.27-15.28-26.44c-2.94-4.7-7.64-7.64-12.93-7.64a16.405,16.405,0,0,0-13.51,7.05v1.18l-15.28,25.85-14.69,24.68v1.18l-13.52,23.5-1.76,2.35a36.325,36.325,0,0,1-62.29,0l-1.76-2.35a39.419,39.419,0,0,1-3.53-16.45,37.756,37.756,0,0,1,4.7-17.63l0.59-1.17,14.11-24.69v-0.58h0.58l15.28-26.45,14.1-24.68v-0.58h0.59l14.69-26.45h0.59l7.05-12.34,5.29-9.99,1.76-2.94h0.59v-0.58l14.69-25.86,29.97-51.71,7.05-12.34,7.64-12.93,15.28-26.44,14.69-25.27h0v-0.59l15.28-25.85,14.69-25.27v-0.59l13.52-23.51,1.76-2.93a36.247,36.247,0,0,1,31.14-17.05,35.537,35.537,0,0,1,31.15,17.63l0.59,0.59a40.1,40.1,0,0,1,4.7,18.22,37.788,37.788,0,0,1-4.7,17.63l-0.59.58-14.11,25.27h-0.58v0.59l-29.38,51.12-0.59.59-14.69,25.27v0.59l-13.52,22.92-1.17,2.35a0.575,0.575,0,0,1-.59.58v0.59l-29.38,50.54v0.59h-0.59a17.441,17.441,0,0,0,0,15.27h0.59l1.76,2.94,5.29,9.99,22.33,38.79h0.59v0.58l29.38,51.13h0.59v0.58l14.69,25.86a35.416,35.416,0,0,1,0,35.26l-0.59,1.17A35.516,35.516,0,0,1,5907.22,6898.67Zm-6.46-191.57a35.83,35.83,0,0,1,4.7-17.62l0.59-1.18a35.52,35.52,0,0,1,31.14-17.63h29.97a14.6,14.6,0,0,0,12.93-7.64l14.1-24.09,1.18-2.35a36.928,36.928,0,0,1,31.14-17.63,35.516,35.516,0,0,1,31.15,17.63l1.76,2.35a39.453,39.453,0,0,1,3.53,16.45,34.725,34.725,0,0,1-4.12,17.04v0.59l-0.58,1.18-14.7,25.27h-0.58v0.58l-14.69,25.86a37.565,37.565,0,0,1-31.15,17.63h-59.94a35.52,35.52,0,0,1-31.14-17.63l-1.76-2.35v-0.59A36.831,36.831,0,0,1,5900.76,6707.1Zm460.12-118.7a35.5,35.5,0,0,1-31.14-17.63l-0.59-1.17a37.638,37.638,0,0,1-4.7-17.63,35.9,35.9,0,0,1,4.7-17.63l0.59-1.17a35.5,35.5,0,0,1,31.14-17.63,37.184,37.184,0,0,1,31.74,17.63v0.58a40.008,40.008,0,0,1,4.7,18.22,37.638,37.638,0,0,1-4.7,17.63v0.59C6385.57,6581.35,6373.81,6588.4,6360.88,6588.4Zm-215.66,273.84a37.756,37.756,0,0,1,4.7-17.63l0.59-1.17,7.05-12.35,5.88-9.99,1.18-2.35,0.58-.58v-0.59l15.28-25.86,14.1-24.68v-0.58h0.59l14.69-26.45,7.64-12.34,7.05-12.93h0.59l14.69-26.44,14.69-25.27h0l15.28-26.44a36.945,36.945,0,0,1,31.15-17.63,37.792,37.792,0,0,1,31.73,17.63v1.17c3.52,5.29,4.7,11.17,4.7,17.63a35.568,35.568,0,0,1-4.11,17.63h-0.59l-7.64,13.52-7.05,12.34v0.59h-0.59l-21.74,38.78-5.88,9.99-1.76,2.94-0.59.58-29.38,51.13v0.59l-29.38,51.12h-0.59v0.59l-15.28,25.85a36.325,36.325,0,0,1-62.29,0l-0.59-1.17A36,36,0,0,1,6145.22,6862.24Z"/>
  </g>
</svg>
